<svg width="1010" height="289" viewBox="0 0 1010 289" fill="none" xmlns="http://www.w3.org/2000/svg">
<path d="M42.4355 109.831C34.3301 109.831 27.25 108.61 21.1953 106.169C15.1406 103.728 10.3555 100.236 6.83984 95.6953C3.37305 91.1543 1.41992 85.7344 0.980469 79.4355L0.907227 78.3369H18.9248L19.0713 79.2158C19.6084 82.2432 20.9268 84.8555 23.0264 87.0527C25.126 89.25 27.8848 90.959 31.3027 92.1797C34.7695 93.3516 38.7002 93.9375 43.0947 93.9375C47.5381 93.9375 51.3711 93.3271 54.5938 92.1064C57.8652 90.8857 60.3799 89.1523 62.1377 86.9062C63.8955 84.6113 64.7744 81.9502 64.7744 78.9229V78.8496C64.7744 74.8945 63.2852 71.7695 60.3066 69.4746C57.377 67.1797 52.4941 65.2998 45.6582 63.835L34.3057 61.4912C23.9541 59.3428 16.1904 55.8271 11.0146 50.9443C5.83887 46.0127 3.25098 39.6162 3.25098 31.7549V31.6816C3.2998 25.4316 4.98438 19.9873 8.30469 15.3486C11.6738 10.6611 16.3125 7.02344 22.2207 4.43555C28.1289 1.79883 34.8672 0.480469 42.4355 0.480469C50.1016 0.480469 56.8154 1.75 62.5771 4.28906C68.3389 6.82813 72.8555 10.3682 76.127 14.9092C79.4473 19.4502 81.2783 24.7236 81.6201 30.7295L81.6934 31.9746H63.6758L63.5293 31.0225C63.0898 27.9463 61.9424 25.334 60.0869 23.1855C58.2314 20.9883 55.79 19.3037 52.7627 18.1318C49.7354 16.96 46.2441 16.374 42.2891 16.374C38.1875 16.374 34.623 16.9844 31.5957 18.2051C28.6172 19.377 26.2979 21.0371 24.6377 23.1855C23.0264 25.334 22.2207 27.8242 22.2207 30.6562V30.7295C22.2207 34.4404 23.71 37.4678 26.6885 39.8115C29.7158 42.1064 34.4033 43.9131 40.751 45.2314L52.1035 47.5752C59.4766 49.0889 65.4824 51.1396 70.1211 53.7275C74.7598 56.3154 78.1777 59.5625 80.375 63.4688C82.6211 67.375 83.7441 72.0625 83.7441 77.5312V77.6045C83.7441 84.1475 82.084 89.8359 78.7637 94.6699C75.4922 99.5039 70.7559 103.239 64.5547 105.876C58.4023 108.513 51.0293 109.831 42.4355 109.831ZM120.805 108V18.2051H89.1641V2.31152H171.195V18.2051H139.628V108H120.805ZM162.479 108L200.272 2.31152H216.166V21.1348H210.673L182.255 108H162.479ZM181.596 80.6807L186.649 66.1055H235.062L240.116 80.6807H181.596ZM239.457 108L211.039 21.1348V2.31152H221.513L259.232 108H239.457ZM270.585 108V2.31152H312.772C320.292 2.31152 326.762 3.6543 332.182 6.33984C337.602 8.97656 341.776 12.7607 344.706 17.6924C347.636 22.624 349.101 28.4834 349.101 35.2705V35.417C349.101 42.5459 347.294 48.7959 343.681 54.167C340.116 59.5381 335.282 63.3467 329.179 65.5928L352.25 108H330.717L309.916 68.4492C309.77 68.4492 309.599 68.4492 309.403 68.4492C309.257 68.4492 309.11 68.4492 308.964 68.4492H289.481V108H270.585ZM289.481 53.5078H310.795C316.801 53.5078 321.464 51.9453 324.784 48.8203C328.104 45.6465 329.765 41.2275 329.765 35.5635V35.417C329.765 29.8994 328.031 25.5537 324.564 22.3799C321.098 19.1572 316.386 17.5459 310.429 17.5459H289.481V53.5078ZM390.189 108V18.2051H358.549V2.31152H440.58V18.2051H409.013V108H390.189ZM453.544 108V2.31152H472.44V108H453.544ZM491.044 108V2.31152H508.036L569.853 91.2275L551.981 76.4326H559.965V2.31152H578.715V108H561.869L499.979 18.8643L517.851 33.5859H509.794V108H491.044ZM643.827 109.831C636.112 109.831 629.179 108.586 623.026 106.096C616.874 103.557 611.625 99.8945 607.279 95.1094C602.934 90.3242 599.589 84.5381 597.245 77.751C594.95 70.915 593.803 63.249 593.803 54.7529V54.6797C593.803 43.4492 595.829 33.8057 599.882 25.749C603.935 17.6436 609.672 11.418 617.094 7.07227C624.564 2.67773 633.354 0.480469 643.461 0.480469C651.811 0.480469 659.135 1.96973 665.434 4.94824C671.732 7.87793 676.859 11.9062 680.814 17.0332C684.818 22.1113 687.479 27.8975 688.798 34.3916L689.091 35.6367H669.975L669.682 34.8311C667.68 29.167 664.433 24.748 659.94 21.5742C655.497 18.4004 650.028 16.8135 643.534 16.8135C637.187 16.8135 631.742 18.3027 627.201 21.2812C622.66 24.2598 619.169 28.5811 616.728 34.2451C614.286 39.8604 613.065 46.623 613.065 54.5332V54.6064C613.065 60.6611 613.773 66.1055 615.189 70.9395C616.605 75.7246 618.656 79.8018 621.342 83.1709C624.076 86.4912 627.348 89.0547 631.156 90.8613C634.965 92.6191 639.262 93.498 644.047 93.498C649.369 93.498 654.057 92.4727 658.109 90.4219C662.211 88.3711 665.409 85.4902 667.704 81.7793C670.048 78.0684 671.269 73.7471 671.366 68.8154L671.439 67.2041H645.219V52.4824H689.896V63.9082C689.896 71.0371 688.847 77.4336 686.747 83.0977C684.696 88.7617 681.669 93.5957 677.665 97.5996C673.71 101.555 668.876 104.582 663.163 106.682C657.499 108.781 651.054 109.831 643.827 109.831ZM51.2979 288.831C41.1904 288.831 32.4014 286.609 24.9307 282.166C17.5088 277.723 11.7715 271.424 7.71875 263.27C3.71484 255.066 1.71289 245.35 1.71289 234.119V234.046C1.71289 222.815 3.73926 213.123 7.79199 204.969C11.8447 196.814 17.582 190.54 25.0039 186.146C32.4258 181.702 41.1904 179.48 51.2979 179.48C59.4033 179.48 66.6543 181.043 73.0508 184.168C79.4961 187.293 84.7451 191.614 88.7979 197.132C92.8506 202.649 95.3408 208.997 96.2686 216.175L96.3418 216.907H77.8115L77.4453 215.516C76.4199 211.463 74.7354 207.972 72.3916 205.042C70.0479 202.112 67.0938 199.842 63.5293 198.23C59.9648 196.619 55.8877 195.813 51.2979 195.813C45.1455 195.813 39.7988 197.376 35.2578 200.501C30.7168 203.626 27.2012 208.045 24.7109 213.758C22.2207 219.422 20.9756 226.185 20.9756 234.046V234.119C20.9756 241.932 22.2207 248.719 24.7109 254.48C27.2012 260.193 30.7168 264.637 35.2578 267.811C39.8477 270.936 45.1943 272.498 51.2979 272.498C55.79 272.498 59.7939 271.717 63.3096 270.154C66.874 268.543 69.877 266.224 72.3184 263.196C74.7598 260.169 76.542 256.482 77.665 252.137L77.8848 251.404H96.415L96.2686 252.21C95.3896 259.388 92.9238 265.735 88.8711 271.253C84.8184 276.771 79.5693 281.092 73.124 284.217C66.6787 287.293 59.4033 288.831 51.2979 288.831ZM157.353 288.831C147.05 288.831 138.139 286.609 130.619 282.166C123.148 277.723 117.362 271.424 113.261 263.27C109.208 255.066 107.182 245.374 107.182 234.192V234.046C107.182 222.864 109.232 213.196 113.334 205.042C117.436 196.888 123.222 190.589 130.692 186.146C138.212 181.702 147.099 179.48 157.353 179.48C167.606 179.48 176.469 181.702 183.939 186.146C191.459 190.589 197.245 196.888 201.298 205.042C205.399 213.196 207.45 222.864 207.45 234.046V234.192C207.45 245.374 205.399 255.066 201.298 263.27C197.245 271.424 191.483 277.723 184.013 282.166C176.542 286.609 167.655 288.831 157.353 288.831ZM157.353 272.498C163.749 272.498 169.242 270.936 173.832 267.811C178.471 264.637 182.035 260.193 184.525 254.48C187.016 248.719 188.261 241.956 188.261 234.192V234.046C188.261 226.233 186.991 219.471 184.452 213.758C181.962 207.996 178.397 203.577 173.759 200.501C169.12 197.376 163.651 195.813 157.353 195.813C151.103 195.813 145.634 197.376 140.946 200.501C136.308 203.577 132.719 207.972 130.18 213.685C127.689 219.397 126.444 226.185 126.444 234.046V234.192C126.444 242.005 127.689 248.792 130.18 254.554C132.719 260.267 136.308 264.686 140.946 267.811C145.585 270.936 151.054 272.498 157.353 272.498ZM222.538 287V181.312H241.435V287H222.538ZM260.038 287V181.312H278.935V271.106H326.835V287H260.038ZM417.216 288.831C406.913 288.831 398.002 286.609 390.482 282.166C383.012 277.723 377.226 271.424 373.124 263.27C369.071 255.066 367.045 245.374 367.045 234.192V234.046C367.045 222.864 369.096 213.196 373.197 205.042C377.299 196.888 383.085 190.589 390.556 186.146C398.075 181.702 406.962 179.48 417.216 179.48C427.47 179.48 436.332 181.702 443.803 186.146C451.322 190.589 457.108 196.888 461.161 205.042C465.263 213.196 467.313 222.864 467.313 234.046V234.192C467.313 245.374 465.263 255.066 461.161 263.27C457.108 271.424 451.347 277.723 443.876 282.166C436.405 286.609 427.519 288.831 417.216 288.831ZM417.216 272.498C423.612 272.498 429.105 270.936 433.695 267.811C438.334 264.637 441.898 260.193 444.389 254.48C446.879 248.719 448.124 241.956 448.124 234.192V234.046C448.124 226.233 446.854 219.471 444.315 213.758C441.825 207.996 438.261 203.577 433.622 200.501C428.983 197.376 423.515 195.813 417.216 195.813C410.966 195.813 405.497 197.376 400.81 200.501C396.171 203.577 392.582 207.972 390.043 213.685C387.553 219.397 386.308 226.185 386.308 234.046V234.192C386.308 242.005 387.553 248.792 390.043 254.554C392.582 260.267 396.171 264.686 400.81 267.811C405.448 270.936 410.917 272.498 417.216 272.498ZM482.401 287V181.312H549.784V197.205H501.298V228.479H545.609V243.86H501.298V287H482.401ZM630.863 288.831C622.758 288.831 615.678 287.61 609.623 285.169C603.568 282.728 598.783 279.236 595.268 274.695C591.801 270.154 589.848 264.734 589.408 258.436L589.335 257.337H607.353L607.499 258.216C608.036 261.243 609.354 263.855 611.454 266.053C613.554 268.25 616.312 269.959 619.73 271.18C623.197 272.352 627.128 272.938 631.522 272.938C635.966 272.938 639.799 272.327 643.021 271.106C646.293 269.886 648.808 268.152 650.565 265.906C652.323 263.611 653.202 260.95 653.202 257.923V257.85C653.202 253.895 651.713 250.77 648.734 248.475C645.805 246.18 640.922 244.3 634.086 242.835L622.733 240.491C612.382 238.343 604.618 234.827 599.442 229.944C594.267 225.013 591.679 218.616 591.679 210.755V210.682C591.728 204.432 593.412 198.987 596.732 194.349C600.102 189.661 604.74 186.023 610.648 183.436C616.557 180.799 623.295 179.48 630.863 179.48C638.529 179.48 645.243 180.75 651.005 183.289C656.767 185.828 661.283 189.368 664.555 193.909C667.875 198.45 669.706 203.724 670.048 209.729L670.121 210.975H652.104L651.957 210.022C651.518 206.946 650.37 204.334 648.515 202.186C646.659 199.988 644.218 198.304 641.19 197.132C638.163 195.96 634.672 195.374 630.717 195.374C626.615 195.374 623.051 195.984 620.023 197.205C617.045 198.377 614.726 200.037 613.065 202.186C611.454 204.334 610.648 206.824 610.648 209.656V209.729C610.648 213.44 612.138 216.468 615.116 218.812C618.144 221.106 622.831 222.913 629.179 224.231L640.531 226.575C647.904 228.089 653.91 230.14 658.549 232.728C663.188 235.315 666.605 238.562 668.803 242.469C671.049 246.375 672.172 251.062 672.172 256.531V256.604C672.172 263.147 670.512 268.836 667.191 273.67C663.92 278.504 659.184 282.239 652.982 284.876C646.83 287.513 639.457 288.831 630.863 288.831ZM709.232 287V197.205H677.592V181.312H759.623V197.205H728.056V287H709.232ZM772.587 287V181.312H840.995V197.205H791.483V225.696H838.285V240.931H791.483V271.106H840.995V287H772.587ZM857.401 287V181.312H925.81V197.205H876.298V225.696H923.1V240.931H876.298V271.106H925.81V287H857.401ZM942.216 287V181.312H961.112V271.106H1009.01V287H942.216Z" fill="black"/>
</svg>
