<svg width="912" height="289" viewBox="0 0 912 289" fill="none" xmlns="http://www.w3.org/2000/svg">
<path d="M37.748 109.465C30.6191 109.465 24.2959 108.269 18.7783 105.876C13.2607 103.435 8.86621 100.041 5.59473 95.6953C2.37207 91.3008 0.541016 86.1982 0.101562 80.3877L0.0283203 79.4355H3.76367L3.83691 80.3877C4.27637 85.4658 5.96094 89.9336 8.89062 93.791C11.8203 97.6484 15.751 100.651 20.6826 102.8C25.6143 104.948 31.3271 106.022 37.8213 106.022C44.2178 106.022 49.8086 104.997 54.5938 102.946C59.4277 100.896 63.1875 98.0146 65.873 94.3037C68.6074 90.5928 69.9746 86.2715 69.9746 81.3398V81.2666C69.9746 74.9678 67.875 69.9629 63.6758 66.252C59.4766 62.541 52.4453 59.5381 42.582 57.2432L31.2295 54.6064C21.2197 52.2627 13.9443 48.9912 9.40332 44.792C4.91113 40.5439 2.66504 34.8799 2.66504 27.7998V27.6533C2.66504 22.4775 4.12988 17.8633 7.05957 13.8105C9.98926 9.75781 13.9932 6.58398 19.0713 4.28906C24.1494 1.99414 29.8867 0.84668 36.2832 0.84668C42.9727 0.84668 48.8809 2.06738 54.0078 4.50879C59.1348 6.90137 63.2363 10.2949 66.3125 14.6895C69.4375 19.0352 71.2441 24.1377 71.7324 29.9971L71.8057 30.876H68.0703L67.9971 29.9971C67.5576 24.7725 65.9463 20.2559 63.1631 16.4473C60.3799 12.6387 56.6934 9.66016 52.1035 7.51172C47.5137 5.36328 42.2402 4.28906 36.2832 4.28906C30.4727 4.28906 25.3213 5.29004 20.8291 7.29199C16.3369 9.24512 12.7969 11.9795 10.209 15.4951C7.66992 18.9619 6.40039 22.9902 6.40039 27.5801V27.7266C6.40039 33.8301 8.47559 38.7617 12.626 42.5215C16.7764 46.2324 23.4414 49.1621 32.6211 51.3105L43.9736 53.9473C51.1514 55.6074 56.9131 57.6338 61.2588 60.0264C65.6045 62.4189 68.7539 65.3486 70.707 68.8154C72.709 72.2334 73.71 76.3838 73.71 81.2666V81.3398C73.71 86.9551 72.1963 91.8867 69.1689 96.1348C66.1416 100.334 61.918 103.605 56.498 105.949C51.127 108.293 44.877 109.465 37.748 109.465ZM112.968 108V5.75391H74.8818V2.31152H154.716V5.75391H116.63V108H112.968ZM141.752 108L182.475 2.31152H185.331V7.36523H184.306L145.78 108H141.752ZM157.865 71.3057L158.964 67.9365H209.647L210.819 71.3057H157.865ZM222.978 108L184.452 7.36523V2.31152H186.283L226.933 108H222.978ZM237.553 108V2.31152H270.365C277.396 2.31152 283.427 3.50781 288.456 5.90039C293.534 8.29297 297.44 11.7354 300.175 16.2275C302.958 20.6709 304.35 25.9688 304.35 32.1211V32.2676C304.35 39.8848 302.104 46.2568 297.611 51.3838C293.119 56.4619 286.894 59.709 278.935 61.125L306.84 108H302.592L275.053 61.7109C274.418 61.7598 273.637 61.8086 272.709 61.8574C271.781 61.9062 270.951 61.9307 270.219 61.9307H241.288V108H237.553ZM241.288 58.4883H270.292C279.667 58.4883 287.064 56.1445 292.484 51.457C297.904 46.7695 300.614 40.373 300.614 32.2676V32.1211C300.614 23.8203 297.904 17.3506 292.484 12.7119C287.113 8.07324 279.691 5.75391 270.219 5.75391H241.288V58.4883ZM348.515 108V5.75391H310.429V2.31152H390.263V5.75391H352.177V108H348.515ZM400.297 108V2.31152H404.032V108H400.297ZM422.27 108V2.31152H426.371L500.053 106.901L494.413 101.774H496.757V2.31152H500.419V108H496.391L422.636 3.4834L428.349 8.53711H426.005V108H422.27ZM559.306 109.465C552.519 109.465 546.366 108.171 540.849 105.583C535.331 102.995 530.57 99.2842 526.566 94.4502C522.562 89.6162 519.486 83.8301 517.338 77.0918C515.238 70.3047 514.188 62.7607 514.188 54.46V54.3867C514.188 43.4492 516.044 33.9766 519.755 25.9688C523.466 17.9609 528.69 11.7842 535.429 7.43848C542.216 3.04395 550.175 0.84668 559.306 0.84668C566.239 0.84668 572.538 2.0918 578.202 4.58203C583.915 7.07227 588.725 10.7832 592.631 15.7148C596.586 20.5977 599.369 26.6523 600.98 33.8789L601.127 34.6113H597.465L597.318 34.0254C594.779 23.9668 590.116 16.4961 583.329 11.6133C576.542 6.73047 568.534 4.28906 559.306 4.28906C550.858 4.28906 543.534 6.33984 537.333 10.4414C531.181 14.4941 526.396 20.2803 522.978 27.7998C519.608 35.2705 517.924 44.1328 517.924 54.3867V54.46C517.924 62.2725 518.876 69.3525 520.78 75.7002C522.733 82.0479 525.541 87.4678 529.203 91.96C532.865 96.4521 537.235 99.9189 542.313 102.36C547.44 104.802 553.104 106.022 559.306 106.022C567.265 106.022 574.125 104.216 579.887 100.603C585.697 96.9404 590.189 91.8623 593.363 85.3682C596.537 78.874 598.124 71.3301 598.124 62.7363V59.5869H559.379V56.1445H601.859V62.6631C601.859 69.6455 600.858 76.0176 598.856 81.7793C596.903 87.4922 594.047 92.4238 590.287 96.5742C586.576 100.725 582.108 103.923 576.884 106.169C571.659 108.366 565.8 109.465 559.306 109.465ZM47.2695 288.465C37.9434 288.465 29.7646 286.219 22.7334 281.727C15.7021 277.186 10.2578 270.838 6.40039 262.684C2.54297 254.529 0.614258 245.008 0.614258 234.119V233.973C0.614258 222.938 2.51855 213.392 6.32715 205.335C10.1357 197.229 15.5312 190.955 22.5137 186.512C29.5449 182.068 37.7969 179.847 47.2695 179.847C54.5449 179.847 60.9414 181.263 66.459 184.095C72.0254 186.927 76.5908 190.833 80.1553 195.813C83.7686 200.745 86.21 206.434 87.4795 212.879L87.626 213.611H83.9639L83.8174 212.879C82.499 207.166 80.2041 202.088 76.9326 197.645C73.71 193.201 69.6084 189.71 64.6279 187.171C59.6475 184.583 53.8613 183.289 47.2695 183.289C38.5293 183.289 30.9365 185.364 24.4912 189.515C18.0459 193.665 13.0654 199.549 9.5498 207.166C6.08301 214.734 4.34961 223.67 4.34961 233.973V234.119C4.34961 244.324 6.10742 253.26 9.62305 260.926C13.1875 268.543 18.1924 274.476 24.6377 278.724C31.083 282.923 38.627 285.022 47.2695 285.022C53.8613 285.022 59.6475 283.753 64.6279 281.214C69.6084 278.626 73.7344 275.11 77.0059 270.667C80.2773 266.175 82.5479 261.072 83.8174 255.359L83.9639 254.7H87.626L87.4795 255.433C86.21 261.878 83.7686 267.591 80.1553 272.571C76.5908 277.552 72.0254 281.458 66.459 284.29C60.9414 287.073 54.5449 288.465 47.2695 288.465ZM142.777 288.465C133.256 288.465 124.979 286.268 117.948 281.873C110.966 277.43 105.57 271.131 101.762 262.977C98.002 254.822 96.1221 245.203 96.1221 234.119V233.973C96.1221 222.938 98.0264 213.392 101.835 205.335C105.644 197.229 111.015 190.955 117.948 186.512C124.931 182.068 133.158 179.847 142.631 179.847C152.25 179.847 160.526 182.068 167.46 186.512C174.442 190.955 179.813 197.229 183.573 205.335C187.382 213.44 189.286 222.986 189.286 233.973V234.119C189.286 245.203 187.382 254.822 183.573 262.977C179.813 271.131 174.442 277.43 167.46 281.873C160.526 286.268 152.299 288.465 142.777 288.465ZM142.777 285.022C151.566 285.022 159.159 282.923 165.556 278.724C171.952 274.476 176.884 268.543 180.351 260.926C183.866 253.309 185.624 244.373 185.624 234.119V233.973C185.624 223.67 183.866 214.734 180.351 207.166C176.835 199.598 171.854 193.738 165.409 189.588C159.013 185.389 151.42 183.289 142.631 183.289C133.939 183.289 126.371 185.389 119.926 189.588C113.529 193.738 108.573 199.598 105.058 207.166C101.591 214.734 99.8574 223.67 99.8574 233.973V234.119C99.8574 244.422 101.591 253.406 105.058 261.072C108.573 268.689 113.554 274.598 119.999 278.797C126.493 282.947 134.086 285.022 142.777 285.022ZM202.982 287V181.312H206.718V287H202.982ZM224.955 287V181.312H228.69V283.558H285.38V287H224.955ZM371.586 288.465C362.064 288.465 353.788 286.268 346.757 281.873C339.774 277.43 334.379 271.131 330.57 262.977C326.811 254.822 324.931 245.203 324.931 234.119V233.973C324.931 222.938 326.835 213.392 330.644 205.335C334.452 197.229 339.823 190.955 346.757 186.512C353.739 182.068 361.967 179.847 371.439 179.847C381.059 179.847 389.335 182.068 396.269 186.512C403.251 190.955 408.622 197.229 412.382 205.335C416.19 213.44 418.095 222.986 418.095 233.973V234.119C418.095 245.203 416.19 254.822 412.382 262.977C408.622 271.131 403.251 277.43 396.269 281.873C389.335 286.268 381.107 288.465 371.586 288.465ZM371.586 285.022C380.375 285.022 387.968 282.923 394.364 278.724C400.761 274.476 405.692 268.543 409.159 260.926C412.675 253.309 414.433 244.373 414.433 234.119V233.973C414.433 223.67 412.675 214.734 409.159 207.166C405.644 199.598 400.663 193.738 394.218 189.588C387.821 185.389 380.229 183.289 371.439 183.289C362.748 183.289 355.18 185.389 348.734 189.588C342.338 193.738 337.382 199.598 333.866 207.166C330.399 214.734 328.666 223.67 328.666 233.973V234.119C328.666 244.422 330.399 253.406 333.866 261.072C337.382 268.689 342.362 274.598 348.808 278.797C355.302 282.947 362.895 285.022 371.586 285.022ZM431.791 287V181.312H492.216V184.754H435.526V231.189H487.821V234.632H435.526V287H431.791ZM569.633 288.465C562.504 288.465 556.181 287.269 550.663 284.876C545.146 282.435 540.751 279.041 537.479 274.695C534.257 270.301 532.426 265.198 531.986 259.388L531.913 258.436H535.648L535.722 259.388C536.161 264.466 537.846 268.934 540.775 272.791C543.705 276.648 547.636 279.651 552.567 281.8C557.499 283.948 563.212 285.022 569.706 285.022C576.103 285.022 581.693 283.997 586.479 281.946C591.312 279.896 595.072 277.015 597.758 273.304C600.492 269.593 601.859 265.271 601.859 260.34V260.267C601.859 253.968 599.76 248.963 595.561 245.252C591.361 241.541 584.33 238.538 574.467 236.243L563.114 233.606C553.104 231.263 545.829 227.991 541.288 223.792C536.796 219.544 534.55 213.88 534.55 206.8V206.653C534.55 201.478 536.015 196.863 538.944 192.811C541.874 188.758 545.878 185.584 550.956 183.289C556.034 180.994 561.771 179.847 568.168 179.847C574.857 179.847 580.766 181.067 585.893 183.509C591.02 185.901 595.121 189.295 598.197 193.689C601.322 198.035 603.129 203.138 603.617 208.997L603.69 209.876H599.955L599.882 208.997C599.442 203.772 597.831 199.256 595.048 195.447C592.265 191.639 588.578 188.66 583.988 186.512C579.398 184.363 574.125 183.289 568.168 183.289C562.357 183.289 557.206 184.29 552.714 186.292C548.222 188.245 544.682 190.979 542.094 194.495C539.555 197.962 538.285 201.99 538.285 206.58V206.727C538.285 212.83 540.36 217.762 544.511 221.521C548.661 225.232 555.326 228.162 564.506 230.311L575.858 232.947C583.036 234.607 588.798 236.634 593.144 239.026C597.489 241.419 600.639 244.349 602.592 247.815C604.594 251.233 605.595 255.384 605.595 260.267V260.34C605.595 265.955 604.081 270.887 601.054 275.135C598.026 279.334 593.803 282.605 588.383 284.949C583.012 287.293 576.762 288.465 569.633 288.465ZM644.853 287V184.754H606.767V181.312H686.601V184.754H648.515V287H644.853ZM696.635 287V181.312H757.206V184.754H700.37V231.043H754.569V234.485H700.37V283.558H757.206V287H696.635ZM773.686 287V181.312H834.257V184.754H777.421V231.043H831.62V234.485H777.421V283.558H834.257V287H773.686ZM850.736 287V181.312H854.472V283.558H911.161V287H850.736Z" fill="black"/>
</svg>
