<svg xmlns="http://www.w3.org/2000/svg" viewBox="0 0 181.33 67.75"><defs><style>.cls-1{fill:#0070c0;}.cls-2{fill:#fff;}.cls-3{fill:none;stroke:#0070c0;stroke-miterlimit:10;stroke-width:2.5px;}</style></defs><g id="Layer_2" data-name="Layer 2"><g id="Layer_1-2" data-name="Layer 1"><ellipse class="cls-1" cx="90.67" cy="30" rx="90" ry="30"/><path class="cls-2" d="M42,29.16h9.77v12.7H47.42v-3c0,.84-.6,1.63-1.8,2.38a9.17,9.17,0,0,1-5,1.28,9.82,9.82,0,0,1-7.46-3.14Q29.95,36,30,30.11a13.55,13.55,0,0,1,2.71-8.71,10.41,10.41,0,0,1,8.64-3.87,10.8,10.8,0,0,1,7.77,2.77,8.29,8.29,0,0,1,2.55,5.27H46.75a2.23,2.23,0,0,0-.33-1,5.68,5.68,0,0,0-1-1.31,5.94,5.94,0,0,0-1.61-1.13,6.33,6.33,0,0,0-7,1.52q-2,2.27-2,6.52T37,36.59a6.45,6.45,0,0,0,4.63,1.65,7.05,7.05,0,0,0,3.35-.8,4.48,4.48,0,0,0,2.43-4.32H42Z"/><path class="cls-2" d="M68.21,42H63.34v-9L55.09,18.08h5.73l5,10.44,4.57-10.44h5.48L68.21,33Z"/><path class="cls-2" d="M83.5,19.54a11.81,11.81,0,0,1,13.36,0q4.41,3.2,4.42,10.48T96.86,40.43a11.67,11.67,0,0,1-13.36,0Q79.1,37.24,79.11,30T83.5,19.54Zm2.58,17.05a5.58,5.58,0,0,0,4.11,1.65,5.51,5.51,0,0,0,4.08-1.65C95.71,35.17,96.44,33,96.44,30s-.73-5.2-2.17-6.64a5.51,5.51,0,0,0-4.08-1.65,5.58,5.58,0,0,0-4.11,1.65Q83.95,25.54,84,30T86.08,36.59Z"/><path class="cls-2" d="M110.9,31.26V42H106V18.08h4.88v9.07h9.22V18.08H125V42h-4.84V31.26Z"/><path class="cls-2" d="M134.15,42H129l8.43-23.87h5.6L151.39,42h-5.24L144.6,37h-8.8Zm3-9h6.06l-3-9.44h-.09Z"/><line class="cls-3" y1="66.5" x2="181.33" y2="66.5"/></g></g></svg>